<?xml version="1.0" standalone="no"?>
<!DOCTYPE svg PUBLIC "-//W3C//DTD SVG 20010904//EN"
 "http://www.w3.org/TR/2001/REC-SVG-20010904/DTD/svg10.dtd">
<svg version="1.0" xmlns="http://www.w3.org/2000/svg"
 width="366.000000pt" height="64.000000pt" viewBox="0 0 366.000000 64.000000"
 preserveAspectRatio="xMidYMid meet">

<g transform="translate(0.000000,64.000000) scale(0.100000,-0.100000)"
fill="#000000" stroke="none">
<path d="M10 320 l0 -310 322 0 c305 0 324 1 364 21 99 48 122 189 44 267 -26
26 -28 31 -14 43 49 40 60 152 22 209 -13 18 -36 43 -51 54 -27 20 -42 21
-358 24 l-329 3 0 -311z m622 145 c8 -19 8 -31 0 -50 l-12 -25 -235 0 -235 0
0 50 0 50 235 0 235 0 12 -25z m10 -240 c8 -19 8 -31 0 -50 l-12 -25 -240 0
-240 0 0 50 0 50 240 0 240 0 12 -25z"/>
<path d="M840 508 l0 -122 70 69 c69 69 70 70 70 122 l0 53 -70 0 -70 0 0
-122z"/>
<path d="M1154 605 c-32 -16 -59 -39 -77 -67 -27 -42 -27 -43 -27 -218 0 -161
2 -178 21 -210 26 -42 41 -55 94 -80 36 -18 64 -20 303 -20 l262 0 0 190 0
190 -170 0 -170 0 0 -70 0 -70 100 0 100 0 0 -50 0 -50 -183 0 c-142 0 -188 3
-203 14 -17 13 -19 29 -22 146 -3 107 -1 135 12 156 l16 24 260 0 260 0 0 70
0 70 -263 0 c-260 0 -264 0 -313 -25z"/>
<path d="M2105 611 c-47 -22 -89 -64 -104 -104 -6 -16 -11 -99 -11 -187 0
-169 6 -198 48 -244 45 -48 96 -66 192 -66 l85 0 -27 23 c-14 12 -31 32 -37
44 -20 41 -12 142 18 233 16 47 27 87 25 89 -6 7 -63 -126 -78 -182 -8 -29
-12 -66 -10 -83 l4 -29 -15 30 c-34 71 -8 189 66 298 36 52 99 175 99 192 0 3
-48 5 -107 5 -84 0 -117 -5 -148 -19z"/>
<path d="M2374 608 c4 -12 10 -59 13 -103 4 -69 2 -91 -20 -155 -55 -160 -55
-234 -2 -258 41 -19 48 -14 26 14 -28 36 -27 101 3 189 13 39 29 90 34 115 9
43 10 42 11 -36 1 -52 6 -85 14 -92 10 -8 12 -2 9 29 -3 24 0 39 7 39 6 0 11
-6 11 -13 0 -8 9 -22 21 -33 75 -68 78 -193 6 -272 l-20 -22 60 0 c76 0 137
30 178 89 l30 43 0 178 0 178 -30 43 c-48 68 -89 83 -234 87 l-124 4 7 -24z"/>
<path d="M2820 508 l0 -122 70 69 c69 69 70 70 70 122 l0 53 -70 0 -70 0 0
-122z"/>
<path d="M3030 320 l0 -310 310 0 310 0 0 70 0 70 -240 0 -240 0 0 240 0 240
-70 0 -70 0 0 -310z"/>
<path d="M907 382 l-67 -68 0 -152 0 -152 70 0 70 0 0 220 c0 121 -1 220 -3
220 -1 0 -33 -30 -70 -68z"/>
<path d="M2887 382 l-67 -68 0 -152 0 -152 70 0 70 0 0 220 c0 121 -1 220 -3
220 -1 0 -33 -30 -70 -68z"/>
</g>
</svg>
